<svg width="49" height="49" viewBox="0 0 49 49" fill="none" xmlns="http://www.w3.org/2000/svg">
<g id="Location-Pin-3--Streamline-Core.svg">
<g id="location-pin-3--navigation-map-maps-pin-gps-location">
<path id="Vector" d="M38.826 17.6474C38.826 27.1981 24.4999 38.3406 24.4999 38.3406C24.4999 38.3406 10.1738 27.1981 10.1738 17.6474C10.1738 9.84443 16.697 3.32129 24.4999 3.32129C32.3028 3.32129 38.826 9.84443 38.826 17.6474Z" stroke="#950606" stroke-width="3" stroke-linecap="round" stroke-linejoin="round"/>
<path id="Vector_2" d="M24.5 22.4228C27.1373 22.4228 29.2753 20.2848 29.2753 17.6474C29.2753 15.0101 27.1373 12.8721 24.5 12.8721C21.8626 12.8721 19.7246 15.0101 19.7246 17.6474C19.7246 20.2848 21.8626 22.4228 24.5 22.4228Z" stroke="#950606" stroke-width="3" stroke-linecap="round" stroke-linejoin="round"/>
<path id="Vector_3" d="M37.4802 33.5654H40.4177L45.1931 44.7079H3.80664L8.582 33.5654H11.5195" stroke="#950606" stroke-width="3" stroke-linecap="round" stroke-linejoin="round"/>
</g>
</g>
</svg>
