<svg width="24" height="24" viewBox="0 0 24 24" fill="none" xmlns="http://www.w3.org/2000/svg">
<g id="path">
<path id="path_2" d="M10.2986 18C12.1495 17.9999 13.943 17.3581 15.3737 16.1839C16.8044 15.0097 17.7837 13.3757 18.1447 11.5605C18.5057 9.74517 18.2261 7.86087 17.3536 6.2286C16.481 4.59633 15.0696 3.3171 13.3596 2.60887C11.6496 1.90064 9.74694 1.80723 7.97581 2.34455C6.20469 2.88187 4.67469 4.01668 3.64647 5.55563C2.61824 7.09457 2.15543 8.94243 2.3369 10.7844C2.51836 12.6263 3.33287 14.3483 4.64164 15.657C5.38454 16.3999 6.26647 16.9891 7.2371 17.3911C8.20773 17.7931 9.24804 18 10.2986 18Z" stroke="#2B170B" stroke-width="3" stroke-linecap="round" stroke-linejoin="round"/>
<path id="path_3" d="M22.2986 22L18.2986 18" stroke="#2B170B" stroke-width="3" stroke-linecap="round" stroke-linejoin="round"/>
</g>
</svg>
