<svg width="92" height="92" viewBox="0 0 92 92" fill="none" xmlns="http://www.w3.org/2000/svg">
<path id="vector" d="M17.0086 22.0228L83.0709 12.2614C86.6443 11.7258 89.7323 14.7764 89.2911 18.3644C88.4168 25.4753 87.7051 32.286 86.8612 39.3407C86.2184 44.7144 81.6338 48.7083 76.2244 48.7083H21.6157M17.0086 22.0228L21.6157 48.7083M17.0086 22.0228H16.2946C11.4382 22.0228 7.17583 18.7879 5.8671 14.1089L2.66663 2.66669M21.6157 48.7083L22.8146 55.9037C23.6849 61.1273 28.2022 64.9558 33.4953 64.9558H81.1701M62.2499 16.2084L67.6666 48.7083M40.5833 18.9167L46 48.7083M78.4999 83.9167C78.4999 86.9082 76.0748 89.3333 73.0833 89.3333C70.0917 89.3333 67.6666 86.9082 67.6666 83.9167C67.6666 80.9251 70.0917 78.5 73.0833 78.5C76.0748 78.5 78.4999 80.9251 78.4999 83.9167ZM35.1666 83.9167C35.1666 86.9082 32.7415 89.3333 29.75 89.3333C26.7584 89.3333 24.3333 86.9082 24.3333 83.9167C24.3333 80.9251 26.7584 78.5 29.75 78.5C32.7415 78.5 35.1666 80.9251 35.1666 83.9167Z" stroke="black" stroke-width="4" stroke-linecap="round" stroke-linejoin="round"/>
</svg>
